<svg width="185" height="185" viewBox="0 0 185 185" fill="none" xmlns="http://www.w3.org/2000/svg">
<mask id="path-1-inside-1_80_35" fill="white">
<path fill-rule="evenodd" clip-rule="evenodd" d="M4.56086 22.8479C0 31.7991 0 43.5168 0 66.9524V118.048C0 141.483 0 153.201 4.56086 162.152C8.5727 170.026 14.9742 176.427 22.8479 180.439C31.7991 185 43.5168 185 66.9524 185H118.048C141.483 185 153.201 185 162.152 180.439C170.026 176.427 176.427 170.026 180.439 162.152C185 153.201 185 141.483 185 118.048V66.9524C185 43.5168 185 31.7991 180.439 22.8479C176.427 14.9742 170.026 8.5727 162.152 4.56086C153.201 0 141.483 0 118.048 0H66.9524C43.5168 0 31.7991 0 22.8479 4.56086C14.9742 8.5727 8.5727 14.9742 4.56086 22.8479ZM109.739 38.8179C124.077 38.7388 137.875 44.8264 147.664 55.6576C156.76 65.6982 161.848 78.8221 162.002 92.4995C162.002 122.226 138.568 146.497 109.739 146.497H67.2663C55.0871 146.497 43.5246 141.358 35.1996 132.267C27.2601 123.57 22.7892 112.185 22.7121 100.326C22.7121 78.3478 39.7476 54.6298 67.2663 54.6298C68.885 54.6298 70.5808 54.7879 72.2766 54.9461L72.2767 54.9461C81.4496 44.9845 95.7101 38.8179 109.739 38.8179ZM29.4955 100.801C29.4955 121.752 45.9913 138.749 66.4184 138.749H86.2288C86.2288 138.749 74.1267 131.16 69.8101 124.993H66.8038C53.7767 124.993 42.7538 113.767 42.7538 100.485C42.7538 94.7132 44.758 89.0999 48.458 84.7516C56.9371 74.632 71.8142 73.5251 81.6809 82.2217L96.7892 98.1918C99.333 100.88 103.495 100.959 106.116 98.3499C108.737 95.7409 108.814 91.4717 106.27 88.7837L90.7767 72.4974C84.7642 65.9354 75.283 62.9311 66.2642 62.9311C45.9142 63.0892 29.4955 80.008 29.4955 100.801ZM110.51 139.066C122.458 138.987 133.866 134.006 142.114 125.151C150.516 116.376 155.141 104.517 155.141 92.2623C155.064 66.8841 135.1 46.3286 110.356 46.3286C98.9475 46.3286 88.5413 50.2025 80.2163 58.1875C83.2226 58.82 89.8034 61.9328 92.858 65.0657C98.2538 61.1918 103.727 59.8478 110.356 59.8478C127.777 59.9268 141.96 74.3948 141.96 92.2623C141.96 100.959 138.645 109.339 132.71 115.585C126.929 121.91 118.912 125.467 110.51 125.467C102.648 125.467 94.4767 121.752 88.0788 115.19L67.9601 94.5551C66.7267 93.211 65.0309 92.4995 63.258 92.4995C61.4851 92.4995 59.8663 93.132 58.633 94.3969C56.0892 97.0059 56.0121 101.275 58.5559 103.963L78.7517 124.835C87.6163 133.848 99.1788 139.066 110.51 139.066Z"/>
</mask>
<path d="M4.56086 22.8479L0.996832 21.0319L0.996832 21.0319L4.56086 22.8479ZM4.56086 162.152L0.996832 163.968L0.996832 163.968L4.56086 162.152ZM22.8479 180.439L21.0319 184.003L21.0319 184.003L22.8479 180.439ZM162.152 180.439L163.968 184.003L163.968 184.003L162.152 180.439ZM180.439 162.152L184.003 163.968L184.003 163.968L180.439 162.152ZM180.439 22.8479L184.003 21.0319L184.003 21.0319L180.439 22.8479ZM162.152 4.56086L163.968 0.996832L163.968 0.996832L162.152 4.56086ZM22.8479 4.56086L21.0319 0.996832L21.0319 0.996832L22.8479 4.56086ZM147.664 55.6576L144.697 58.3397L144.7 58.3431L147.664 55.6576ZM109.739 38.8179V42.8179H109.75L109.761 42.8178L109.739 38.8179ZM162.002 92.4995H166.002V92.4769L166.001 92.4544L162.002 92.4995ZM35.1996 132.267L32.2456 134.964L32.2495 134.968L35.1996 132.267ZM22.7121 100.326H18.7121V100.339L18.7122 100.352L22.7121 100.326ZM72.2766 54.9461L71.9052 58.9288L71.9248 58.9306L71.9444 58.9322L72.2766 54.9461ZM72.2767 54.9461L71.9445 58.9322L73.8941 59.0947L75.2192 57.6556L72.2767 54.9461ZM86.2288 138.749V142.749H100.136L88.354 135.361L86.2288 138.749ZM69.8101 124.993L73.087 122.699L71.8927 120.993H69.8101V124.993ZM48.458 84.7516L51.5044 87.3438L51.5142 87.3322L51.524 87.3206L48.458 84.7516ZM81.6809 82.2217L84.5866 79.4728L84.4619 79.3409L84.3258 79.2209L81.6809 82.2217ZM96.7892 98.1918L93.8835 100.941L93.8839 100.941L96.7892 98.1918ZM106.116 98.3499L108.938 101.185L108.938 101.185L106.116 98.3499ZM106.27 88.7837L109.176 86.0343L109.169 86.0266L106.27 88.7837ZM90.7767 72.4974L87.8275 75.1996L87.8528 75.2272L87.8787 75.2544L90.7767 72.4974ZM66.2642 62.9311V58.9311H66.2487L66.2331 58.9312L66.2642 62.9311ZM142.114 125.151L139.225 122.385L139.206 122.405L139.187 122.425L142.114 125.151ZM110.51 139.066V143.066H110.523L110.537 143.066L110.51 139.066ZM155.141 92.2623L159.141 92.2623L159.141 92.2502L155.141 92.2623ZM80.2163 58.1875L77.4474 55.3008L71.9824 60.5427L79.3927 62.1018L80.2163 58.1875ZM92.858 65.0657L89.994 67.8581L92.3959 70.3216L95.1908 68.315L92.858 65.0657ZM110.356 59.8478L110.374 55.8478L110.365 55.8478H110.356V59.8478ZM132.71 115.585L129.811 112.829L129.784 112.858L129.758 112.886L132.71 115.585ZM88.0788 115.19L90.9428 112.397L90.9428 112.397L88.0788 115.19ZM67.9601 94.5551L65.0129 97.2595L65.0538 97.3041L65.0961 97.3475L67.9601 94.5551ZM58.633 94.3969L55.769 91.6045L55.769 91.6045L58.633 94.3969ZM58.5559 103.963L55.6506 106.713L55.6658 106.729L55.6813 106.745L58.5559 103.963ZM78.7517 124.835L75.8771 127.616L75.8885 127.628L75.8999 127.64L78.7517 124.835ZM4 66.9524C4 55.1686 4.00311 46.5713 4.55682 39.7942C5.10672 33.0638 6.17966 28.4816 8.12488 24.6639L0.996832 21.0319C-1.6188 26.1654 -2.82629 31.9176 -3.41661 39.1428C-4.00311 46.3212 -4 55.3006 -4 66.9524H4ZM4 118.048V66.9524H-4V118.048H4ZM8.12488 160.336C6.17966 156.518 5.10672 151.936 4.55682 145.206C4.00311 138.429 4 129.831 4 118.048H-4C-4 129.699 -4.00311 138.679 -3.41661 145.857C-2.82629 153.082 -1.6188 158.835 0.996832 163.968L8.12488 160.336ZM24.6639 176.875C17.5428 173.247 11.7532 167.457 8.12488 160.336L0.996832 163.968C5.39217 172.594 12.4056 179.608 21.0319 184.003L24.6639 176.875ZM66.9524 181C55.1686 181 46.5713 180.997 39.7942 180.443C33.0638 179.893 28.4816 178.82 24.6639 176.875L21.0319 184.003C26.1654 186.619 31.9176 187.826 39.1428 188.417C46.3212 189.003 55.3006 189 66.9524 189V181ZM118.048 181H66.9524V189H118.048V181ZM160.336 176.875C156.518 178.82 151.936 179.893 145.206 180.443C138.429 180.997 129.831 181 118.048 181V189C129.699 189 138.679 189.003 145.857 188.417C153.082 187.826 158.835 186.619 163.968 184.003L160.336 176.875ZM176.875 160.336C173.247 167.457 167.457 173.247 160.336 176.875L163.968 184.003C172.594 179.608 179.608 172.594 184.003 163.968L176.875 160.336ZM181 118.048C181 129.831 180.997 138.429 180.443 145.206C179.893 151.936 178.82 156.518 176.875 160.336L184.003 163.968C186.619 158.835 187.826 153.082 188.417 145.857C189.003 138.679 189 129.699 189 118.048H181ZM181 66.9524V118.048H189V66.9524H181ZM176.875 24.6639C178.82 28.4816 179.893 33.0638 180.443 39.7942C180.997 46.5713 181 55.1686 181 66.9524H189C189 55.3006 189.003 46.3212 188.417 39.1428C187.826 31.9176 186.619 26.1654 184.003 21.0319L176.875 24.6639ZM160.336 8.12488C167.457 11.7532 173.247 17.5428 176.875 24.6639L184.003 21.0319C179.608 12.4056 172.594 5.39217 163.968 0.996832L160.336 8.12488ZM118.048 4C129.831 4 138.429 4.00311 145.206 4.55682C151.936 5.10672 156.518 6.17966 160.336 8.12488L163.968 0.996832C158.835 -1.6188 153.082 -2.82629 145.857 -3.41661C138.679 -4.00311 129.699 -4 118.048 -4V4ZM66.9524 4H118.048V-4H66.9524V4ZM24.6639 8.12488C28.4816 6.17966 33.0638 5.10672 39.7942 4.55682C46.5713 4.00311 55.1686 4 66.9524 4V-4C55.3006 -4 46.3212 -4.00311 39.1428 -3.41661C31.9176 -2.82629 26.1654 -1.6188 21.0319 0.996832L24.6639 8.12488ZM8.12488 24.6639C11.7532 17.5428 17.5428 11.7532 24.6639 8.12488L21.0319 0.996832C12.4056 5.39217 5.39217 12.4056 0.996832 21.0319L8.12488 24.6639ZM150.632 52.9755C140.087 41.3085 125.205 34.7325 109.717 34.8179L109.761 42.8178C122.948 42.7451 135.663 48.3443 144.697 58.3397L150.632 52.9755ZM166.001 92.4544C165.836 77.8165 160.392 63.749 150.629 52.9721L144.7 58.3431C153.129 67.6474 157.859 79.8278 158.002 92.5446L166.001 92.4544ZM109.739 150.497C140.903 150.497 166.002 124.308 166.002 92.4995H158.002C158.002 120.144 136.234 142.497 109.739 142.497V150.497ZM67.2663 150.497H109.739V142.497H67.2663V150.497ZM32.2495 134.968C41.3199 144.874 53.947 150.497 67.2663 150.497V142.497C56.2273 142.497 45.7294 137.843 38.1498 129.565L32.2495 134.968ZM18.7122 100.352C18.7957 113.2 23.6387 125.536 32.2456 134.964L38.1537 129.57C30.8814 121.604 26.7827 111.171 26.7121 100.3L18.7122 100.352ZM67.2663 50.6298C37.1021 50.6298 18.7121 76.6018 18.7121 100.326H26.7121C26.7121 80.0938 42.393 58.6298 67.2663 58.6298V50.6298ZM72.6479 50.9633C70.9902 50.8088 69.1044 50.6298 67.2663 50.6298V58.6298C68.6656 58.6298 70.1714 58.7671 71.9052 58.9288L72.6479 50.9633ZM72.6089 50.9599L72.6088 50.9599L71.9444 58.9322L71.9445 58.9322L72.6089 50.9599ZM109.739 34.8179C94.629 34.8179 79.2893 41.4256 69.3342 52.2365L75.2192 57.6556C83.61 48.5434 96.7911 42.8179 109.739 42.8179V34.8179ZM66.4184 134.749C48.306 134.749 33.4955 119.65 33.4955 100.801H25.4955C25.4955 123.854 43.6766 142.749 66.4184 142.749V134.749ZM86.2288 134.749H66.4184V142.749H86.2288V134.749ZM66.5331 127.287C69.0949 130.947 73.6739 134.716 77.2414 137.386C79.0913 138.771 80.7966 139.952 82.0391 140.787C82.6615 141.205 83.1707 141.539 83.5274 141.77C83.7058 141.885 83.8462 141.975 83.9439 142.037C83.9927 142.068 84.0308 142.092 84.0576 142.109C84.071 142.118 84.0816 142.124 84.0893 142.129C84.0931 142.132 84.0963 142.134 84.0987 142.135C84.0998 142.136 84.1008 142.137 84.1017 142.137C84.1021 142.137 84.1026 142.138 84.1028 142.138C84.1032 142.138 84.1036 142.138 86.2288 138.749C88.354 135.361 88.3543 135.361 88.3546 135.361C88.3546 135.361 88.3548 135.361 88.3548 135.361C88.3549 135.361 88.3548 135.361 88.3545 135.361C88.354 135.361 88.3527 135.36 88.3507 135.359C88.3467 135.356 88.3399 135.352 88.3303 135.346C88.311 135.334 88.2807 135.314 88.2398 135.288C88.1581 135.236 88.0343 135.157 87.8734 135.053C87.5514 134.845 87.0813 134.537 86.5017 134.147C85.3402 133.367 83.7501 132.265 82.035 130.981C78.4723 128.315 74.8418 125.206 73.087 122.699L66.5331 127.287ZM66.8038 128.993H69.8101V120.993H66.8038V128.993ZM38.7538 100.485C38.7538 115.905 51.4974 128.993 66.8038 128.993V120.993C56.0561 120.993 46.7538 111.628 46.7538 100.485H38.7538ZM45.4116 82.1594C41.0742 87.2568 38.7538 93.7975 38.7538 100.485H46.7538C46.7538 95.6288 48.4417 90.943 51.5044 87.3438L45.4116 82.1594ZM84.3258 79.2209C72.7724 69.0377 55.3151 70.3397 45.392 82.1827L51.524 87.3206C58.5592 78.9243 70.856 78.0125 79.036 85.2225L84.3258 79.2209ZM99.695 95.4429L84.5866 79.4728L78.7751 84.9706L93.8835 100.941L99.695 95.4429ZM103.294 95.5151C102.282 96.5232 100.707 96.5119 99.6945 95.4424L93.8839 100.941C97.9593 105.248 104.709 105.395 108.938 101.185L103.294 95.5151ZM103.365 91.533C104.408 92.6355 104.387 94.4274 103.294 95.5151L108.938 101.185C113.087 97.0545 113.22 90.308 109.176 86.0343L103.365 91.533ZM87.8787 75.2544L103.372 91.5407L109.169 86.0266L93.6748 69.7403L87.8787 75.2544ZM66.2642 66.9311C74.5369 66.9311 82.7938 69.7059 87.8275 75.1996L93.7259 69.7951C86.7347 62.165 76.029 58.9311 66.2642 58.9311V66.9311ZM33.4955 100.801C33.4955 82.1224 48.224 67.0714 66.2953 66.931L66.2331 58.9312C43.6044 59.1071 25.4955 77.8937 25.4955 100.801H33.4955ZM139.187 122.425C131.689 130.475 121.33 134.994 110.484 135.066L110.537 143.066C123.586 142.979 136.044 137.537 145.041 127.878L139.187 122.425ZM151.141 92.2623C151.141 103.521 146.89 114.379 139.225 122.385L145.003 127.917C154.142 118.372 159.141 105.512 159.141 92.2623L151.141 92.2623ZM110.356 50.3286C132.785 50.3286 151.071 68.9886 151.141 92.2745L159.141 92.2502C159.058 64.7796 137.414 42.3286 110.356 42.3286V50.3286ZM82.9852 61.0743C90.5158 53.8512 99.9087 50.3286 110.356 50.3286V42.3286C97.9864 42.3286 86.5668 46.5538 77.4474 55.3008L82.9852 61.0743ZM95.722 62.2733C93.7588 60.2599 90.9149 58.4658 88.3637 57.1398C85.8152 55.8151 83.0512 54.6964 81.0399 54.2732L79.3927 62.1018C80.3877 62.3112 82.4172 63.0651 84.6743 64.2382C86.9287 65.41 88.9025 66.7387 89.994 67.8581L95.722 62.2733ZM110.356 55.8478C103.085 55.8478 96.7437 57.3518 90.5251 61.8164L95.1908 68.315C99.7639 65.0318 104.369 63.8478 110.356 63.8478V55.8478ZM145.96 92.2623C145.96 72.2649 130.068 55.9372 110.374 55.8478L110.338 63.8477C125.485 63.9165 137.96 76.5247 137.96 92.2623H145.96ZM135.61 118.34C142.262 111.34 145.96 101.969 145.96 92.2623H137.96C137.96 99.9485 135.029 107.338 129.811 112.829L135.61 118.34ZM110.51 129.467C120.055 129.467 129.137 125.423 135.662 118.284L129.758 112.886C124.721 118.397 117.769 121.467 110.51 121.467V129.467ZM85.2148 117.982C92.2407 125.188 101.402 129.467 110.51 129.467V121.467C103.893 121.467 96.7128 118.315 90.9428 112.397L85.2148 117.982ZM65.0961 97.3475L85.2148 117.982L90.9428 112.397L70.8241 91.7627L65.0961 97.3475ZM63.258 96.4995C63.9453 96.4995 64.5604 96.7664 65.0129 97.2595L70.9072 91.8506C68.893 89.6556 66.1165 88.4995 63.258 88.4995V96.4995ZM61.497 97.1893C61.9216 96.7538 62.4808 96.4995 63.258 96.4995V88.4995C60.4893 88.4995 57.811 89.5101 55.769 91.6045L61.497 97.1893ZM61.4612 101.214C60.4116 100.105 60.4327 98.2809 61.497 97.1893L55.769 91.6045C51.7458 95.7309 51.6127 102.446 55.6506 106.713L61.4612 101.214ZM81.6263 122.053L61.4305 101.182L55.6813 106.745L75.8771 127.616L81.6263 122.053ZM110.51 135.066C100.392 135.066 89.8211 130.385 81.6035 122.03L75.8999 127.64C85.4115 137.31 97.9655 143.066 110.51 143.066V135.066Z" fill="white" mask="url(#path-1-inside-1_80_35)"/>
</svg>
