<svg width="185" height="175" viewBox="0 0 185 175" fill="none" xmlns="http://www.w3.org/2000/svg">
    <path
      d="M70.0677 137.676C67.3392 145.771 64.6857 153.627 62.0397 161.482C61.2601 163.783 60.5105 166.092 59.716 168.386C58.2993 172.456 55.3984 174.832 51.1707 174.855C36.9662 174.937 22.7541 175.005 8.54958 174.817C2.03572 174.735 -1.53229 168.896 0.634002 162.449C7.60511 141.716 14.5987 120.997 21.5848 100.271C32.0265 69.2688 42.4681 38.2736 52.9172 7.27092C54.7912 1.70154 57.1899 0.00749581 63.0666 0C82.7881 0 102.517 0 122.239 0C127.643 0 130.289 1.88145 132.021 7.03107C147.387 52.6431 162.738 98.2626 178.097 143.882C180.211 150.171 182.34 156.46 184.416 162.764C186.553 169.233 182.632 174.847 175.804 174.87C155.243 174.93 134.674 174.892 114.113 174.892C111.37 174.892 109.068 173.963 107.037 172.051C95.3061 161.047 83.5301 150.089 71.7692 139.115C71.3045 138.68 70.7948 138.283 70.0752 137.668L70.0677 137.676ZM78.2231 112.932C87.4579 112.977 96.6928 113.022 105.928 113.052C106.048 113.052 106.168 112.834 106.46 112.542C101.91 99.0421 97.3299 85.4522 92.4952 71.1127C87.5854 85.6171 82.9455 99.3195 78.313 113.029C77.8558 113.082 77.3986 113.179 76.9338 113.179C69.6629 113.187 62.3995 113.179 55.1286 113.202C53.1497 113.209 51.4631 113.801 50.6535 115.87C49.8365 117.962 50.736 119.438 52.2202 120.802C54.5514 122.946 56.8226 125.165 59.1463 127.324C62.7368 130.667 66.3497 133.98 70.1726 137.518C72.9536 129.025 75.5921 120.975 78.2306 112.932H78.2231ZM81.7612 118.126C80.0372 123.224 78.478 128.223 76.6265 133.111C75.7645 135.397 76.2368 136.791 78.0058 138.418C88.6124 148.155 99.0614 158.072 109.698 167.786C110.995 168.971 113.101 169.863 114.833 169.878C134.839 170.02 154.845 169.975 174.844 169.967C179.641 169.967 181.081 167.959 179.552 163.409C162.236 111.935 144.906 60.4687 127.583 9.00245C126.369 5.39697 125.499 4.77483 121.669 4.77483C102.225 4.76733 82.7806 4.76733 63.3364 4.77483C59.4836 4.77483 58.6516 5.40448 57.4372 8.99497C49.4992 32.5543 41.5461 56.1061 33.6081 79.6655C24.1783 107.655 14.7486 135.644 5.34135 163.641C3.91714 167.884 5.39383 169.96 9.80887 169.967C23.1739 169.99 36.5464 169.938 49.9115 170.005C52.58 170.02 54.3715 169.21 55.256 166.534C58.0894 157.922 60.9528 149.324 63.9286 140.764C64.4683 139.205 63.9961 138.373 62.9317 137.391C58.3068 133.163 53.7268 128.89 49.1469 124.618C45.6913 121.402 44.6944 117.819 46.1411 114.026C47.5203 110.413 50.6385 108.472 55.2859 108.434C60.8928 108.389 66.5072 108.337 72.1141 108.464C74.1005 108.509 75.03 107.932 75.6746 105.961C79.2876 94.852 83.0654 83.7882 86.7984 72.7168C88.6123 67.3348 90.4638 61.9678 92.5177 55.9412C99.6087 77.0194 106.467 97.408 113.438 118.119H81.7612V118.126Z"
      fill="white"
    />
  </svg>
