<svg width="171" height="187" viewBox="0 0 171 187" fill="none" xmlns="http://www.w3.org/2000/svg">
<path d="M85.3187 0C82.4144 0 79.526 0.730035 76.9233 2.1901L8.49061 40.6438C3.28515 43.5798 0 49.0551 0 54.9906V131.898C0 137.849 3.28515 143.325 8.49061 146.261L76.9233 184.698C82.1288 187.634 88.5086 187.634 93.7141 184.698L162.147 146.261C167.368 143.325 170.637 137.833 170.637 131.898V54.9906C170.637 49.0551 167.352 43.5798 162.147 40.6438L93.7141 2.1901C91.1113 0.730035 88.2229 0 85.3187 0ZM85.3187 8.12559C86.8422 8.12559 88.3816 8.50648 89.7465 9.26825L158.179 47.722C160.893 49.2614 162.512 52.0228 162.512 54.9906V131.898C162.512 134.866 160.893 137.627 158.163 139.167L89.7465 177.62C87.0168 179.144 83.6206 179.144 80.8909 177.62L12.474 139.167C9.74436 137.627 8.12559 134.882 8.12559 131.898V54.9906C8.12559 52.0228 9.74436 49.2614 12.474 47.722L80.8909 9.26825C82.2557 8.50648 83.7951 8.12559 85.3187 8.12559ZM85.3187 40.6279C56.2284 40.6279 32.5024 64.354 32.5024 93.4443C32.5024 122.535 56.2284 146.261 85.3187 146.261C101.935 146.261 117.361 138.516 127.327 125.391L130.105 121.725L105.506 107.474L103.284 109.886C98.6973 114.901 92.1905 117.821 85.3187 117.821C71.8448 117.821 60.9419 106.918 60.9419 93.4443C60.9419 79.9704 71.8448 69.0675 85.3187 69.0675C92.1905 69.0675 98.6973 71.9876 103.284 77.0027L105.506 79.4149L130.105 65.1634L127.327 61.4974C117.361 48.3726 101.935 40.6279 85.3187 40.6279ZM85.3187 48.7535C97.8086 48.7535 109.235 54.1018 117.599 63.0209L106.458 69.4643C100.586 64.3223 93.2856 60.9419 85.3187 60.9419C67.4329 60.9419 52.8163 75.5585 52.8163 93.4443C52.8163 111.33 67.4329 125.947 85.3187 125.947C93.2856 125.947 100.586 122.566 106.458 117.424L117.599 123.868C109.235 132.787 97.8086 138.135 85.3187 138.135C60.6404 138.135 40.6279 118.123 40.6279 93.4443C40.6279 68.766 60.6404 48.7535 85.3187 48.7535ZM125.947 73.1303V81.2559H117.821V89.3815H125.947V97.5071H117.821V105.633H125.947V113.758H134.072V105.633H142.198V113.758H150.323V105.633H158.449V97.5071H150.323V89.3815H158.449V81.2559H150.323V73.1303H142.198V81.2559H134.072V73.1303H125.947ZM134.072 89.3815H142.198V97.5071H134.072V89.3815Z" fill="white"/>
</svg>
