<svg width="138" height="154" viewBox="0 0 138 154" fill="none" xmlns="http://www.w3.org/2000/svg">
<path d="M65.5754 129.381C65.1857 129.381 64.835 129.288 64.4453 129.1L26.7253 110.366C25.4394 109.71 24.699 108.071 24.9718 106.432L28.7516 84.1376C29.0244 82.4983 30.2323 81.3274 31.5962 81.3274H50.4952C51.3914 81.3274 52.2487 81.8426 52.7942 82.6857C53.3398 83.5287 53.5346 84.6528 53.3008 85.73L51.1186 95.7061L65.6533 103.294L84.7082 95.0504L88.3321 74.5362H33.5056C32.6093 74.5362 31.7521 74.0678 31.2065 73.1779C30.661 72.3349 30.4661 71.2108 30.661 70.1804L34.4408 51.446C34.7525 49.8536 35.9215 48.7763 37.2854 48.7763H92.5016L93.8654 42.1256L39.1558 42.4066C38.2595 42.4066 37.4023 41.8914 36.8567 41.0484C36.3112 40.2053 36.1164 39.0812 36.3112 38.0509L40.091 19.6443C40.4027 18.0518 41.5717 16.9746 42.9356 16.9746H115.531C116.388 16.9746 117.207 17.443 117.791 18.2392C118.337 19.0354 118.57 20.1126 118.415 21.0962L110.918 63.9364L105.205 107.743C105.01 108.914 104.386 109.897 103.49 110.366L66.7444 129.1C66.3937 129.288 66.004 129.381 65.6143 129.381H65.5754ZM31.2065 104.98L65.5364 122.028L99.7104 104.605L112.024 24H45.2346L42.8966 35.428L97.6062 35.147C98.5025 35.147 99.3597 35.6622 99.9053 36.5053C100.451 37.3483 100.646 38.4724 100.451 39.5028L97.6452 53.1789C97.3335 54.7713 96.1645 55.8486 94.8006 55.8486H39.5844L37.2464 67.5576H91.995C92.8912 67.5576 93.7095 68.026 94.2551 68.869C94.8006 69.7121 95.0344 70.7893 94.8396 71.8197L90.1246 98.5163C89.9297 99.6872 89.1894 100.671 88.2542 101.092L66.5885 110.459C65.8871 110.787 65.1078 110.74 64.4453 110.366L46.5595 100.999C45.2346 100.296 44.5332 98.5631 44.8839 96.877L46.7543 88.3528H34.0121L31.2065 104.98Z" fill="white"/>
<path d="M137.25 0C135.968 17.8508 134.674 35.7016 133.403 53.5524C132.347 68.4029 131.328 83.2572 130.276 98.1115C129.439 109.913 128.563 121.71 127.749 133.515C127.677 134.548 127.277 134.933 126.338 135.245C107.636 141.397 88.9457 147.589 70.2402 153.737C69.5876 153.952 68.7427 153.956 68.0939 153.741C49.2828 147.593 30.4905 141.397 11.6831 135.245C10.7401 134.936 10.329 134.552 10.2611 133.519C9.74809 125.717 9.16719 117.915 8.60893 110.116C7.84321 99.4157 7.07371 88.715 6.31176 78.0143C5.56867 67.6114 4.8369 57.2123 4.09758 46.8093C3.32808 36.0069 2.55104 25.2082 1.78155 14.4058C1.44206 9.60385 1.11013 4.80192 0.774414 0C46.2652 0 91.7597 0 137.25 0ZM10.4685 9.07993C10.7439 12.819 11.0193 16.4147 11.272 20.0105C12.4149 36.2632 13.5465 52.5196 14.697 68.7685C16.0738 88.1722 17.4732 107.572 18.8311 126.976C18.8877 127.801 19.1367 128.216 19.9326 128.476C36.0279 133.734 52.1156 139.022 68.2146 144.273C68.7842 144.457 69.5197 144.453 70.0893 144.269C86.0865 139.022 102.072 133.749 118.043 128.431C118.503 128.276 119.065 127.598 119.103 127.127C119.578 121.33 119.963 115.529 120.371 109.728C121.11 99.2272 121.845 88.7225 122.592 78.2216C123.358 67.4192 124.131 56.6205 124.905 45.818C125.565 36.6175 126.232 27.417 126.889 18.2164C127.104 15.1935 127.296 12.1707 127.5 9.0837H10.4685V9.07993Z" fill="white"/>
</svg>
