<svg width="108" height="160" viewBox="0 0 108 160" fill="none" xmlns="http://www.w3.org/2000/svg">
<path d="M54.1431 79.855C54.1431 73.0607 56.8372 66.5446 61.6328 61.7402C66.4284 56.9359 72.9327 54.2368 79.7147 54.2368C86.4968 54.2368 93.001 56.9359 97.7966 61.7402C102.592 66.5446 105.286 73.0607 105.286 79.855C105.286 86.6494 102.592 93.1655 97.7966 97.9699C93.001 102.774 86.4968 105.473 79.7147 105.473C72.9327 105.473 66.4284 102.774 61.6328 97.9699C56.8372 93.1655 54.1431 86.6494 54.1431 79.855V79.855Z" stroke="white" stroke-width="5.27758"/>
<path d="M3 131.091C3 124.297 5.69415 117.781 10.4898 112.977C15.2854 108.172 21.7896 105.473 28.5717 105.473H54.1433V131.091C54.1433 137.886 51.4492 144.402 46.6536 149.206C41.8579 154.011 35.3537 156.71 28.5717 156.71C21.7896 156.71 15.2854 154.011 10.4898 149.206C5.69415 144.402 3 137.886 3 131.091Z" stroke="white" stroke-width="5.27758"/>
<path d="M54.1431 3V54.2365H79.7147C86.4968 54.2365 93.001 51.5374 97.7966 46.7331C102.592 41.9287 105.286 35.4126 105.286 28.6182C105.286 21.8239 102.592 15.3078 97.7966 10.5034C93.001 5.69906 86.4968 3 79.7147 3L54.1431 3Z" stroke="white" stroke-width="5.27758"/>
<path d="M3 28.6182C3 35.4126 5.69415 41.9287 10.4898 46.7331C15.2854 51.5374 21.7896 54.2365 28.5717 54.2365H54.1433V3H28.5717C21.7896 3 15.2854 5.69906 10.4898 10.5034C5.69415 15.3078 3 21.8239 3 28.6182Z" stroke="white" stroke-width="5.27758"/>
<path d="M3 79.855C3 86.6494 5.69415 93.1655 10.4898 97.9699C15.2854 102.774 21.7896 105.473 28.5717 105.473H54.1433V54.2368H28.5717C21.7896 54.2368 15.2854 56.9359 10.4898 61.7402C5.69415 66.5446 3 73.0607 3 79.855Z" stroke="white" stroke-width="5.27758"/>
</svg>
