<svg width="140" height="192" viewBox="0 0 140 192" fill="none" xmlns="http://www.w3.org/2000/svg">
<path d="M3.91674 150.812L26.647 4.28945C26.6471 4.28874 26.6472 4.28804 26.6473 4.28733C27.0141 1.97003 30.2247 1.37745 31.3838 3.50292L54.8815 48.8569L56.6368 52.2448L58.4243 48.8738L68.62 29.6466L68.629 29.6297L68.6377 29.6126C69.5462 27.817 72.1369 27.7882 73.0881 29.5966L89.6999 64.829L3.91674 150.812Z" stroke="white" stroke-width="4"/>
<path d="M74.3077 83.0472L56.5073 48.7178L2.47021 154.885L74.3077 83.0472Z" stroke="white" stroke-width="4"/>
<path d="M64.8741 187.919L64.8521 187.907L64.8299 187.896L4.30895 156.07L116.085 41.9785C116.087 41.9766 116.088 41.9748 116.09 41.9729C117.436 40.633 119.731 41.3782 120.036 43.2461C120.036 43.247 120.036 43.2479 120.037 43.2488L137.8 155.495L75.7924 187.897L75.7686 187.91L75.7451 187.923C72.3668 189.806 68.2517 189.805 64.8741 187.919Z" stroke="white" stroke-width="4"/>
</svg>
