<svg width="137" height="154" viewBox="0 0 137 154" fill="none" xmlns="http://www.w3.org/2000/svg">
<path d="M136.476 0C135.194 17.8508 133.9 35.7016 132.629 53.5524C131.572 68.4029 130.554 83.2572 129.502 98.1115C128.664 109.913 127.789 121.71 126.974 133.515C126.903 134.548 126.503 134.933 125.564 135.245C106.862 141.397 88.1713 147.589 69.4658 153.737C68.8132 153.952 67.9683 153.956 67.3195 153.741C48.5084 147.593 29.7161 141.397 10.9087 135.245C9.96572 134.936 9.55456 134.552 9.48667 133.519C8.97367 125.717 8.39278 117.915 7.83452 110.116C7.06879 99.4157 6.2993 88.715 5.53735 78.0143C4.79426 67.6114 4.06248 57.2122 3.32316 46.8093C2.55367 36.0069 1.77663 25.2082 1.00713 14.4058C0.66765 9.60385 0.335711 4.80192 0 0C45.4907 0 90.9853 0 136.476 0ZM9.69413 9.07993C9.96949 12.819 10.2448 16.4147 10.4976 20.0105C11.6405 36.2632 12.7721 52.5196 13.9226 68.7685C15.2994 88.1722 16.6988 107.572 18.0567 126.976C18.1133 127.801 18.3623 128.216 19.1582 128.476C35.2534 133.734 51.3412 139.022 67.4402 144.273C68.0098 144.457 68.7453 144.453 69.3149 144.269C85.3121 139.022 101.298 133.749 117.269 128.431C117.729 128.276 118.291 127.598 118.329 127.127C118.804 121.33 119.189 115.529 119.596 109.728C120.335 99.2272 121.071 88.7225 121.818 78.2216C122.584 67.4192 123.357 56.6205 124.13 45.818C124.79 36.6175 125.458 27.417 126.114 18.2164C126.329 15.1935 126.522 12.1707 126.725 9.0837H9.69413V9.07993Z" fill="white"/>
<path d="M25.103 94.2841H52.0315C52.1673 95.9953 52.3408 97.6311 52.4049 99.2707C52.4351 100.051 52.7143 100.398 53.4649 100.635C58.1422 102.124 62.8007 103.684 67.4818 105.173C68.0136 105.343 68.6888 105.354 69.2131 105.185C73.8377 103.692 78.4509 102.154 83.049 100.582C83.4337 100.45 83.9618 99.9981 83.9882 99.6627C84.3729 94.9173 84.6823 90.1644 85.0255 85.2079H24.2203C22.6172 62.3743 21.0292 39.7291 19.4336 16.9746H117.027C116.39 25.9189 115.756 34.8405 115.107 43.9242H48.5348C48.8743 48.7186 49.2025 53.3358 49.5382 58.0699H114.112C114.002 59.8753 113.919 61.5526 113.799 63.2261C112.916 75.6304 112.03 88.0348 111.143 100.439C110.702 106.59 110.23 112.742 109.823 118.897C109.759 119.877 109.442 120.37 108.461 120.695C95.4703 124.988 82.4982 129.341 69.5111 133.638C68.8586 133.853 68.0136 133.875 67.3648 133.661C54.2231 129.356 41.0964 125.003 27.9622 120.672C27.2681 120.442 26.7363 120.235 26.6759 119.308C26.1516 111.102 25.5707 102.897 25.0124 94.6949C25.0049 94.6007 25.0539 94.5064 25.1067 94.2878L25.103 94.2841ZM104.429 67.131H41.1077C40.3495 56.3361 39.6027 45.6768 38.8445 34.8518H106.7C106.911 31.8214 107.111 28.9417 107.314 26.0169H29.1202C30.3008 42.7784 31.4702 59.4155 32.647 76.1732H94.6932C94.5574 78.2576 94.433 80.1911 94.2972 82.1285C93.7465 89.9834 93.1731 97.8346 92.6601 105.69C92.5922 106.707 92.1999 107.141 91.2494 107.454C84.0071 109.809 76.7912 112.244 69.5451 114.585C68.8095 114.822 67.859 114.788 67.1159 114.551C60.4809 112.436 53.8685 110.247 47.2448 108.083C45.052 107.367 43.8525 105.877 43.6463 103.613C43.6387 103.526 43.5558 103.447 43.4954 103.338H34.6236C34.8348 106.296 35.1139 109.138 35.2045 111.988C35.2422 113.183 35.6119 113.722 36.7661 114.099C46.8186 117.374 56.8446 120.74 66.9047 123.996C67.8175 124.29 68.9944 124.275 69.911 123.978C79.3901 120.879 88.8164 117.627 98.3144 114.589C100.397 113.921 101.656 113.153 101.34 110.755C101.215 109.832 101.464 108.859 101.532 107.91C102.196 98.7053 102.86 89.5048 103.516 80.3004C103.825 75.9621 104.12 71.6238 104.433 67.131H104.429Z" fill="white"/>
</svg>
