<svg width="138" height="154" viewBox="0 0 138 154" fill="none" xmlns="http://www.w3.org/2000/svg">
<path d="M91.2743 44.7179V68.1584C93.6461 67.7574 95.9457 67.3964 98.2418 66.9775C101.76 66.3313 105.271 65.6317 108.793 64.9855C111.805 64.4329 113.344 66.2021 113.096 70.0747C112.074 85.9082 111.013 101.742 109.95 117.571C109.747 120.606 109.106 121.577 106.827 122.393C96.9475 125.931 87.0642 129.456 77.1774 132.95C74.1825 134.01 72.5336 132.317 72.5232 128.257C72.5095 122.758 72.5129 117.263 72.5232 111.764C72.5301 108.64 73.1842 107.495 75.4906 106.662C81.0089 104.674 86.5203 102.673 92.0592 100.788C93.3157 100.36 93.9319 99.6784 93.8424 97.9359C93.7632 96.4029 93.8251 94.8566 93.8251 93.0874C89.6322 94.0188 85.4772 94.9412 81.3187 95.8682C79.7386 96.2202 78.162 96.6258 76.575 96.9243C74.0792 97.3923 72.5301 95.7479 72.5301 92.517C72.5129 70.0078 72.5129 47.4987 72.5301 24.994C72.5301 21.8968 73.7832 20.4663 76.427 20.4618C88.3585 20.444 100.294 20.4529 112.225 20.4529C112.397 20.4529 112.569 20.4485 112.741 20.4618C115.093 20.6668 116.229 22.3914 116.032 25.4842C115.743 30.0742 115.444 34.6598 115.155 39.2499C114.879 43.5771 113.95 44.709 110.617 44.7134C104.824 44.7223 99.0301 44.7134 93.2331 44.7134H91.2777L91.2743 44.7179ZM78.7919 88.1141C79.4219 88.0383 79.8763 88.025 80.3238 87.9269C85.6356 86.746 90.9438 85.5517 96.2521 84.3707C99.0646 83.7424 100.596 85.4001 100.452 89.0499C100.287 93.279 100.066 97.5037 99.8116 101.724C99.5431 106.158 99.2608 106.523 95.8803 107.727C90.5789 109.616 85.2741 111.501 79.9865 113.462C79.5045 113.64 78.8023 114.344 78.7851 114.839C78.6715 117.785 78.73 120.739 78.73 123.787C79.2429 123.725 79.594 123.743 79.9142 123.631C87.4842 120.949 95.0472 118.235 102.624 115.579C103.547 115.258 103.87 114.701 103.949 113.457C104.566 103.613 105.251 93.7737 105.912 83.934C106.139 80.5605 106.352 77.187 106.59 73.5863C100.727 74.6514 95.1092 75.6407 89.5014 76.7013C86.3998 77.2895 84.9574 75.761 84.9505 71.6656C84.9402 61.7814 84.9436 51.9016 84.9505 42.0173C84.9505 37.9798 85.966 36.6296 89.0505 36.6206C95.0748 36.5984 101.103 36.6206 107.127 36.6073C107.733 36.6073 108.339 36.5404 109.055 36.4959C109.227 33.7953 109.388 31.3086 109.554 28.6838H78.7919V88.1141V88.1141Z" fill="white"/>
<path d="M45.0978 99.5229C45.0978 98.3862 45.0978 97.508 45.0978 96.6298C45.0978 73.1455 45.0978 49.6613 45.0978 26.1771C45.0978 21.6389 45.9948 20.4709 49.489 20.462C52.9658 20.4531 56.4427 20.4397 59.9195 20.4665C62.8296 20.4888 63.9317 21.8975 63.9352 25.5842C63.9387 59.7718 63.9387 93.9595 63.9352 128.143C63.9352 132.48 62.3011 134.054 59.0086 132.886C48.0809 129.008 37.1567 125.111 26.2325 121.215C23.6458 120.292 23.0582 119.303 23.0512 115.83C23.0373 109.959 23.0269 104.088 23.0512 98.2168C23.0721 94.0308 24.7271 92.417 27.8771 93.5137C33.0123 95.3013 38.1372 97.1469 43.2655 98.9657C43.8044 99.1574 44.3537 99.3045 45.0943 99.5274L45.0978 99.5229ZM51.3839 28.6557C51.3839 29.6498 51.3839 30.5191 51.3839 31.3883C51.3839 55.3897 51.3839 79.391 51.3839 103.392C51.3839 108.118 49.7672 109.674 46.2069 108.403C41.9721 106.892 37.7408 105.363 33.506 103.86C32.2022 103.397 30.8845 102.987 29.3617 102.479C29.3617 105.875 29.4277 108.911 29.3338 111.938C29.2852 113.485 29.685 114.123 30.8636 114.533C39.3506 117.475 47.8132 120.524 56.2897 123.524C56.6965 123.667 57.1276 123.694 57.5413 123.774V28.6557H51.3874H51.3839Z" fill="white"/>
<path d="M137.097 0C135.814 17.8508 134.52 35.7016 133.249 53.5524C132.193 68.4029 131.175 83.2572 130.122 98.1115C129.285 109.913 128.41 121.71 127.595 133.515C127.523 134.548 127.123 134.933 126.184 135.245C107.482 141.397 88.7919 147.589 70.0864 153.737C69.4338 153.952 68.5889 153.956 67.9401 153.741C49.129 147.593 30.3367 141.397 11.5293 135.245C10.5863 134.936 10.1752 134.552 10.1073 133.519C9.59428 125.717 9.01338 117.915 8.45512 110.116C7.6894 99.4157 6.9199 88.715 6.15795 78.0143C5.41486 67.6114 4.68309 57.2122 3.94377 46.8093C3.17427 36.0069 2.39723 25.2082 1.62774 14.4058C1.28826 9.60385 0.956317 4.80192 0.620605 0C46.1113 0 91.6059 0 137.097 0ZM10.3147 9.07993C10.5901 12.819 10.8655 16.4147 11.1182 20.0105C12.2611 36.2632 13.3927 52.5196 14.5432 68.7685C15.92 88.1722 17.3194 107.572 18.6773 126.976C18.7339 127.801 18.9829 128.216 19.7788 128.476C35.874 133.734 51.9618 139.022 68.0608 144.273C68.6304 144.457 69.3659 144.453 69.9355 144.269C85.9327 139.022 101.919 133.749 117.889 128.431C118.35 128.276 118.912 127.598 118.949 127.127C119.425 121.33 119.809 115.529 120.217 109.728C120.956 99.2272 121.692 88.7225 122.438 78.2216C123.204 67.4192 123.977 56.6205 124.751 45.818C125.411 36.6175 126.078 27.417 126.735 18.2164C126.95 15.1935 127.142 12.1707 127.346 9.0837H10.3147V9.07993Z" fill="white"/>
</svg>
