<?xml version="1.0" encoding="UTF-8"?><svg id="Calque_1" xmlns="http://www.w3.org/2000/svg" viewBox="0 0 1920 1080"><defs><style>.cls-1{fill:#fff;}</style></defs><path class="cls-1" d="M814.38,396c0,95.75,0,191.5,0,287.25-.25-1-.72-2-.72-3-.04-47.87-.03-95.75-.03-143.62s0-91.75,.03-137.62c0-1,.47-2,.72-3Z"/><path class="cls-1" d="M1049.07,642.52c-3.64,10.8-7.18,21.28-10.71,31.76-1.04,3.07-2.04,6.15-3.1,9.21-1.89,5.43-5.76,8.6-11.4,8.63-18.95,.11-37.91,.2-56.86-.05-8.69-.11-13.45-7.9-10.56-16.5,9.3-27.66,18.63-55.3,27.95-82.95,13.93-41.36,27.86-82.71,41.8-124.07,2.5-7.43,5.7-9.69,13.54-9.7,26.31,0,52.63,0,78.94,0,7.21,0,10.74,2.51,13.05,9.38,20.5,60.85,40.98,121.71,61.47,182.57,2.82,8.39,5.66,16.78,8.43,25.19,2.85,8.63-2.38,16.12-11.49,16.15-27.43,.08-54.87,.03-82.3,.03-3.66,0-6.73-1.24-9.44-3.79-15.65-14.68-31.36-29.3-47.05-43.94-.62-.58-1.3-1.11-2.26-1.93Zm10.88-33.01c12.32,.06,24.64,.12,36.96,.16,.16,0,.32-.29,.71-.68-6.07-18.01-12.18-36.14-18.63-55.27-6.55,19.35-12.74,37.63-18.92,55.92-.61,.07-1.22,.2-1.84,.2-9.7,.01-19.39,0-29.09,.03-2.64,.01-4.89,.8-5.97,3.56-1.09,2.79,.11,4.76,2.09,6.58,3.11,2.86,6.14,5.82,9.24,8.7,4.79,4.46,9.61,8.88,14.71,13.6,3.71-11.33,7.23-22.07,10.75-32.8Zm4.72,6.93c-2.3,6.8-4.38,13.47-6.85,19.99-1.15,3.05-.52,4.91,1.84,7.08,14.15,12.99,28.09,26.22,42.28,39.18,1.73,1.58,4.54,2.77,6.85,2.79,26.69,.19,53.38,.13,80.06,.12,6.4,0,8.32-2.68,6.28-8.75-23.1-68.67-46.22-137.33-69.33-205.99-1.62-4.81-2.78-5.64-7.89-5.64-25.94-.01-51.88-.01-77.82,0-5.14,0-6.25,.84-7.87,5.63-10.59,31.43-21.2,62.85-31.79,94.28-12.58,37.34-25.16,74.68-37.71,112.03-1.9,5.66,.07,8.43,5.96,8.44,17.83,.03,35.67-.04,53.5,.05,3.56,.02,5.95-1.06,7.13-4.63,3.78-11.49,7.6-22.96,11.57-34.38,.72-2.08,.09-3.19-1.33-4.5-6.17-5.64-12.28-11.34-18.39-17.04-4.61-4.29-5.94-9.07-4.01-14.13,1.84-4.82,6-7.41,12.2-7.46,7.48-.06,14.97-.13,22.45,.04,2.65,.06,3.89-.71,4.75-3.34,4.82-14.82,9.86-29.58,14.84-44.35,2.42-7.18,4.89-14.34,7.63-22.38,9.46,28.12,18.61,55.32,27.91,82.95h-42.26Z"/></svg>