<svg width="185" height="185" viewBox="0 0 185 185" fill="none" xmlns="http://www.w3.org/2000/svg">
<path d="M61.6738 7.83944H61.5103C58.8692 7.9074 56.5417 9.61721 55.6935 12.1319L55.6933 12.1323L2.74788 169.009C2.74785 169.009 2.74782 169.009 2.74779 169.01C2.09953 170.931 2.41663 173.048 3.59967 174.695C4.78266 176.343 6.68692 177.319 8.71566 177.319H51.3194C54.026 177.319 56.4317 175.592 57.2978 173.026L67.3464 143.253L50.0223 127.084L61.6738 7.83944ZM61.6738 7.83944L123.336 7.83945C126.039 7.83945 128.44 9.56328 129.304 12.1236L129.304 12.1239L182.252 169.007L182.252 169.008C182.9 170.93 182.584 173.047 181.401 174.695C180.218 176.344 178.314 177.322 176.286 177.322H115.465M61.6738 7.83944L115.465 177.322M115.465 177.322L115.465 177.319H113.436C111.826 177.319 110.278 176.71 109.102 175.613M115.465 177.322L109.102 175.613M109.102 175.613C109.101 175.613 109.101 175.612 109.101 175.612L72.9242 141.846L80.0355 120.776H106.699H110.066L108.989 117.585L94.79 75.5137L92.4996 68.7271L90.2091 75.5137L76.5646 115.941H54.4168H54.4141V118.358M109.102 175.613L50.021 127.083L51.6704 125.315C50.4622 124.189 50.0661 122.439 50.6721 120.902C51.278 119.366 52.7625 118.357 54.4141 118.358M54.4141 118.358H75.7487H54.4141Z" stroke="white" stroke-width="4.83484"/>
</svg>
