<svg width="161" height="185" viewBox="0 0 161 185" fill="none" xmlns="http://www.w3.org/2000/svg">
<path d="M106.763 0.00325488C106.374 0.0211472 105.991 0.0952291 105.624 0.22319L2.70992 35.6091C1.91758 35.8826 1.23047 36.3967 0.744617 37.0798C0.258759 37.7628 -0.00157073 38.5805 7.13032e-06 39.4187V145.584C0.00119164 145.718 0.00905618 145.852 0.0235716 145.985C0.023569 145.988 0.023569 145.99 0.0235716 145.993C0.0501825 146.257 0.102804 146.517 0.180668 146.77C0.180665 146.773 0.180665 146.776 0.180668 146.778C0.260525 147.034 0.365779 147.282 0.49486 147.517C0.687115 147.868 0.930679 148.188 1.2175 148.467C1.31505 148.561 1.41729 148.65 1.52384 148.734C1.73371 148.903 1.96002 149.05 2.19936 149.174C2.31701 149.235 2.43759 149.29 2.56068 149.339C2.56329 149.339 2.56591 149.339 2.56853 149.339C2.61531 149.358 2.66245 149.377 2.70992 149.394L105.624 184.78C106.378 185.04 107.193 185.07 107.964 184.866L157.882 171.592C158.738 171.363 159.495 170.858 160.035 170.155C160.575 169.452 160.867 168.59 160.867 167.704V17.2996C160.867 16.4131 160.575 15.5514 160.035 14.8483C159.495 14.1451 158.738 13.64 157.882 13.4114L107.964 0.136787C107.573 0.0319695 107.168 -0.0130498 106.763 0.00325488ZM107.077 8.22725L155.161 20.2941V164.486L107.077 176.776L43.2486 154.822L104.037 162.849C104.605 162.924 105.182 162.877 105.73 162.711C106.279 162.544 106.785 162.263 107.216 161.885C107.646 161.507 107.991 161.042 108.227 160.52C108.463 159.998 108.585 159.432 108.585 158.859V30.5663C108.584 29.9699 108.451 29.3812 108.195 28.8427C107.938 28.3041 107.566 27.8294 107.103 27.4527C106.641 27.076 106.1 26.8069 105.521 26.6648C104.942 26.5227 104.338 26.5112 103.754 26.6311L39.4076 39.8979C38.4998 40.0844 38.2568 40.5491 37.6714 41.2675C37.086 41.986 37.0981 42.9517 37.0989 43.8784V128.919L6.16401 139.429V42.6063L107.077 8.22725ZM104.037 35.6091V153.009L20.7446 143.739L41.5991 136.096C42.3732 135.812 43.0415 135.298 43.5135 134.622C43.9856 133.946 44.2386 133.142 44.2383 132.318V47.1164L104.037 35.6091Z" fill="white"/>
</svg>
