<svg width="239" height="178" viewBox="0 0 239 178" fill="none" xmlns="http://www.w3.org/2000/svg">
<path d="M119.826 4C92.0597 4 73.3835 18.4543 63.7971 47.3628C62.8037 50.3248 65.8833 52.8128 67.8701 50.621C77.9532 39.4841 89.3278 35.752 101.944 39.5433C111.034 42.2683 117.491 50.0878 124.693 58.7959C136.366 72.954 149.926 89.3039 179.43 89.3039C207.196 89.3039 225.872 74.8497 235.459 45.9411C236.452 42.9792 233.373 40.4911 231.386 42.683C221.303 53.8199 209.928 57.5519 197.312 53.7606C188.222 51.0356 181.765 43.2161 174.563 34.508C162.89 20.3499 149.33 4 119.826 4V4ZM60.2208 89.3039C32.455 89.3039 13.7788 103.758 4.19238 132.667C3.19897 135.629 6.27855 138.117 8.26537 135.925C18.3982 124.788 29.7231 121.056 42.3394 124.847C51.3795 127.572 57.8863 135.392 65.0389 144.1C76.7115 158.258 90.2715 174.608 119.826 174.608C147.591 174.608 166.268 160.154 175.854 131.245C176.847 128.283 173.768 125.795 171.781 127.987C161.698 139.124 150.323 142.856 137.707 139.065C128.617 136.34 122.16 128.52 114.958 119.812C103.285 105.654 89.7748 89.3039 60.2208 89.3039V89.3039Z" stroke="white" stroke-width="6.21404" stroke-miterlimit="10"/>
</svg>
