<svg width="166" height="185" viewBox="0 0 166 185" fill="none" xmlns="http://www.w3.org/2000/svg">
<path d="M140.642 0.00310341C140.304 -0.0132744 139.952 0.0358633 139.615 0.134135L77.9862 16.9061C76.7979 17.2173 75.8296 18.1509 75.3895 19.4121L68.8174 37.7401H48.8221C47.7805 37.7401 46.7683 38.2314 46.0641 39.0995L0.997746 93.6085C-0.395909 95.2791 -0.322556 97.8997 1.17379 99.4721L48.4113 149.788C49.1155 150.542 50.0397 150.951 51.0079 150.951H72.5729L79.1451 169.279C79.6145 170.638 80.7001 171.605 81.9764 171.85L147.551 184.429C149.532 184.823 151.424 183.381 151.864 181.203L165.156 113.148C165.361 112.1 165.2 110.986 164.701 110.069L155.957 94.0507L164.877 73.0857C165.302 72.0866 165.361 70.9401 165.024 69.9082L144.06 2.82027C143.547 1.18238 142.182 0.068619 140.642 0.00310341ZM138.089 9.17528L157.439 71.0384L151.894 84.0596L138.779 36.4953C138.295 34.71 136.784 33.4979 135.097 33.5471C133.718 33.5962 132.456 34.4807 131.84 35.8565L105.551 94.5584C104.95 95.9015 105.038 97.4903 105.771 98.7351L135.815 149.935C136.637 151.344 138.148 152.048 139.63 151.754C141.097 151.459 142.285 150.198 142.608 148.56L151.923 102.797L157.498 113.001L145.292 175.487L85.3212 163.989L81.1255 152.261L124.622 161.286C126.104 161.581 127.615 160.877 128.436 159.468C129.273 158.043 129.273 156.225 128.422 154.816L96.9985 102.486C96.309 101.339 95.1354 100.635 93.8885 100.635H33.8C32.2449 100.635 30.8513 101.7 30.2938 103.321C29.7364 104.926 30.1325 106.761 31.2767 107.924L65.3992 142.565H52.5189L9.02226 96.2455L50.4651 46.1261H62.8613L31.0273 85.2389C30.0151 86.4673 29.7657 88.2362 30.3672 89.7594C30.9686 91.2663 32.3183 92.249 33.8 92.249H93.8885C95.3115 92.249 96.6171 91.3482 97.2479 89.9396L123.537 31.2376C124.109 29.9437 124.065 28.4369 123.405 27.2084C122.744 25.98 121.586 25.2102 120.295 25.1611C119.972 25.1447 119.649 25.1775 119.341 25.2594L77.5167 36.0367L81.6243 24.5387L138.089 9.17528ZM113.253 35.447L91.5706 83.863H42.2939L73.3504 45.733L113.253 35.447ZM134.378 48.976L146.334 92.4128L137.253 137.078L113.238 96.1636L134.378 48.976ZM43.5115 109.021H91.8933L117.214 151.213L76.8566 142.843L43.5115 109.021Z" fill="white"/>
</svg>
