<svg width="169" height="172" viewBox="0 0 169 172" fill="none" xmlns="http://www.w3.org/2000/svg">
<path d="M84.0721 0C37.6911 0 0 38.5439 0 85.9742C0 133.405 37.6911 171.948 84.0721 171.948C130.453 171.948 168.144 133.405 168.144 85.9742C168.144 38.5439 130.453 0 84.0721 0ZM84.0721 7.47602C126.501 7.47602 160.834 42.5859 160.834 85.9742C160.834 129.363 126.501 164.472 84.0721 164.472C41.6437 164.472 7.31062 129.363 7.31062 85.9742C7.31062 42.5859 41.6437 7.47602 84.0721 7.47602ZM84.0721 14.952C45.7399 14.952 14.6212 46.7747 14.6212 85.9742C14.6212 125.174 45.7399 156.996 84.0721 156.996C122.404 156.996 153.523 125.174 153.523 85.9742C153.523 46.7747 122.404 14.952 84.0721 14.952ZM84.0721 22.4281C98.5927 22.4281 111.895 27.534 122.46 36.0294C120.612 38.3462 119.526 41.317 119.526 44.4838C119.526 50.4646 122.817 55.6963 126.472 61.6771C129.397 66.5366 132.319 72.8926 132.319 81.8639C132.319 88.2185 130.492 96.0698 126.836 105.789L119.526 130.458L93.5745 51.2078C97.9609 50.834 101.985 50.4631 101.985 50.4631C105.64 50.0893 105.276 44.4838 101.62 44.4838H101.249C101.249 44.4838 89.5565 45.6008 81.8804 45.6008C74.9353 45.6008 62.8685 44.4838 62.8685 44.4838H62.5044C58.8491 44.4838 58.485 50.4631 62.1403 50.4631C62.1403 50.4631 65.7942 50.834 69.815 51.2078L81.145 82.6085L65.4315 130.83L39.109 50.8355C43.4953 50.4617 47.519 50.0908 47.519 50.0908C51.1743 49.717 50.8102 44.1114 47.1549 44.1114H46.7908C46.7908 44.1114 41.9973 44.5141 36.7173 44.8415C48.1045 31.1371 65.0578 22.4281 84.0721 22.4281ZM128.257 41.2714C133.231 46.413 137.305 52.4407 140.337 59.0781C140.259 63.3083 139.572 67.5366 138.538 71.7668C137.076 66.5336 135.248 62.0495 133.055 58.3115L132.319 56.8148C129.395 51.9554 127.208 48.2203 127.208 44.8561C127.208 43.5756 127.571 42.3115 128.257 41.2714ZM78.9533 52.7045H82.6086C84.0707 53.0783 85.1716 53.0768 86.9992 53.0768L87.3633 53.8288L113.315 133.072L115.863 140.533C114.469 141.383 113.042 142.175 111.58 142.913L92.111 89.7122L89.5551 82.6085L88.8269 79.9948L78.9533 52.7045ZM30.9488 53.0768H32.5337L32.8978 53.8288L59.2132 133.824L61.4121 140.548L60.1556 144.651C59.1507 144.223 58.1913 143.713 57.2142 143.234L27.4791 59.7862C28.5038 57.4678 29.6699 55.2359 30.9488 53.0768ZM144.699 72.1246C145.665 76.5859 146.212 81.2102 146.212 85.9742C146.212 105.633 137.524 123.157 123.866 134.802L141.094 83.7329C142.692 79.5731 143.845 75.7374 144.699 72.1246ZM23.274 72.789L45.9841 136.153C31.3602 124.539 21.9319 106.428 21.9319 85.9742C21.9319 81.4501 22.4002 77.0426 23.274 72.789ZM84.0721 91.9536L103.598 146.286C97.4558 148.357 90.9036 149.52 84.0721 149.52C77.7069 149.52 71.5723 148.532 65.7956 146.724L84.0721 91.9536Z" fill="white"/>
</svg>
