<svg width="37" height="24" viewBox="0 0 37 24" fill="none" xmlns="http://www.w3.org/2000/svg">
<path d="M14.7771 11.0977C16.8025 10.1296 17.8599 8.6646 17.8599 6.38435C17.8599 1.88753 14.5096 0.791992 10.6433 0.791992H0V23.3652H10.9427C15.0446 23.3652 18.8981 21.3971 18.8981 16.8111C18.8981 13.9767 17.5541 11.8812 14.7771 11.0977ZM4.96178 4.64549H9.61783C11.4076 4.64549 13.0191 5.14868 13.0191 7.22511C13.0191 9.14231 11.7643 9.91301 9.99363 9.91301H4.96178V4.64549ZM10.2675 19.5308H4.96178V13.3143H10.3694C12.5541 13.3143 13.9363 14.2251 13.9363 16.5372C13.9363 18.8175 12.2866 19.5308 10.2675 19.5308ZM33.1019 4.19964H23.949V1.97671H33.1019V4.19964ZM36.6879 15.4289C36.6879 10.5945 33.8599 6.56269 28.7325 6.56269C23.7516 6.56269 20.3694 10.3079 20.3694 15.2124C20.3694 20.3015 23.5732 23.792 28.7325 23.792C32.6369 23.792 35.1656 22.034 36.3822 18.2952H32.4204C31.9936 19.6901 30.2357 20.4289 28.8726 20.4289C26.242 20.4289 24.8599 18.8875 24.8599 16.2697H36.6497C36.6688 16.0022 36.6879 15.7156 36.6879 15.4289ZM24.8662 13.4417C25.0127 11.2952 26.4395 9.95123 28.5924 9.95123C30.8471 9.95123 31.9809 11.2761 32.172 13.4417H24.8662Z" fill="white"/>
</svg>
