<svg width="12" height="12" viewBox="0 0 12 12" fill="none" xmlns="http://www.w3.org/2000/svg">
<path d="M3.12348 5.29513C3.08985 5.26275 3.0631 5.22392 3.04483 5.18096C3.02655 5.138 3.01714 5.0918 3.01714 5.04512C3.01714 4.99843 3.02655 4.95223 3.04483 4.90927C3.0631 4.86631 3.08985 4.82748 3.12348 4.7951C3.15534 4.76164 3.19367 4.735 3.23615 4.7168C3.27862 4.6986 3.32434 4.68921 3.37055 4.68921C3.41676 4.68921 3.46248 4.6986 3.50495 4.7168C3.54743 4.735 3.58576 4.76164 3.61763 4.7951L5.48834 6.65993L5.48834 0.924254C5.48834 0.830642 5.52553 0.740864 5.59172 0.67467C5.65791 0.608476 5.74769 0.571289 5.8413 0.571289C5.93491 0.571289 6.02469 0.608476 6.09089 0.67467C6.15708 0.740864 6.19427 0.830642 6.19427 0.924254L6.19427 6.65993L8.06498 4.7951C8.09685 4.76164 8.13518 4.735 8.17765 4.7168C8.22012 4.6986 8.26585 4.68921 8.31205 4.68921C8.35826 4.68921 8.40399 4.6986 8.44646 4.7168C8.48893 4.735 8.52726 4.76164 8.55913 4.7951C8.59276 4.82748 8.61951 4.86631 8.63778 4.90927C8.65605 4.95223 8.66547 4.99843 8.66547 5.04512C8.66547 5.0918 8.65605 5.138 8.63778 5.18096C8.61951 5.22392 8.59276 5.26275 8.55913 5.29513L6.08838 7.76C6.05651 7.79346 6.01818 7.8201 5.97571 7.8383C5.93324 7.85651 5.88751 7.86589 5.8413 7.86589C5.7951 7.86589 5.74937 7.85651 5.7069 7.8383C5.66443 7.8201 5.62609 7.79346 5.59423 7.76L3.12348 5.29513ZM11.0181 7.15996C10.9245 7.15996 10.8347 7.19715 10.7685 7.26334C10.7023 7.32954 10.6652 7.41931 10.6652 7.51293L10.6652 10.8073C10.6652 10.8385 10.6528 10.8684 10.6307 10.8905C10.6086 10.9125 10.5787 10.9249 10.5475 10.9249L1.13511 10.9249C1.1039 10.9249 1.07398 10.9125 1.05191 10.8905C1.02985 10.8684 1.01745 10.8385 1.01745 10.8073L1.01745 7.51293C1.01745 7.41931 0.980265 7.32954 0.914072 7.26334C0.847878 7.19715 0.7581 7.15996 0.664488 7.15996C0.570876 7.15996 0.481098 7.19715 0.414904 7.26334C0.348711 7.32954 0.311523 7.41931 0.311523 7.51293L0.311523 10.8073C0.311523 11.0257 0.398294 11.2352 0.552746 11.3896C0.707198 11.5441 0.916679 11.6308 1.13511 11.6308L10.5475 11.6308C10.7659 11.6308 10.9754 11.5441 11.1299 11.3896C11.2843 11.2352 11.3711 11.0257 11.3711 10.8073L11.3711 7.51293C11.3711 7.41931 11.3339 7.32954 11.2677 7.26334C11.2015 7.19715 11.1117 7.15996 11.0181 7.15996Z" fill="white"/>
</svg>
