<svg width="28" height="26" viewBox="0 0 28 26" fill="none" xmlns="http://www.w3.org/2000/svg">
<path fill-rule="evenodd" clip-rule="evenodd" d="M13.7742 0C6.16396 0 0 5.86845 0 13.1139C0 18.9168 3.94287 23.8181 9.41812 25.5556C10.1068 25.6704 10.3651 25.277 10.3651 24.9327C10.3651 24.6213 10.3479 23.5886 10.3479 22.4903C6.88711 23.0968 5.99179 21.6871 5.7163 20.9494C5.56134 20.5724 4.88985 19.4085 4.30444 19.0971C3.82235 18.8512 3.13364 18.2447 4.28723 18.2283C5.37195 18.2119 6.14675 19.179 6.40501 19.5724C7.64469 21.5559 9.62474 20.9986 10.4168 20.6543C10.5373 19.8019 10.8989 19.2282 11.2949 18.9004C8.2301 18.5725 5.02759 17.4414 5.02759 12.4254C5.02759 10.9993 5.56134 9.81901 6.43945 8.90104C6.30171 8.57319 5.81961 7.22902 6.57719 5.42586C6.57719 5.42586 7.73078 5.08162 10.3651 6.77003C11.467 6.47497 12.6378 6.32744 13.8087 6.32744C14.9795 6.32744 16.1503 6.47497 17.2522 6.77003C19.8865 5.06523 21.0401 5.42586 21.0401 5.42586C21.7977 7.22902 21.3156 8.57319 21.1779 8.90104C22.056 9.81901 22.5897 10.9829 22.5897 12.4254C22.5897 17.4578 19.37 18.5725 16.3052 18.9004C16.8046 19.3102 17.235 20.097 17.235 21.3264C17.235 23.0804 17.2178 24.4901 17.2178 24.9327C17.2178 25.277 17.476 25.6868 18.1648 25.5556C23.6056 23.8181 27.5484 18.9004 27.5484 13.1139C27.5484 5.86845 21.3845 0 13.7742 0Z" fill="white"/>
</svg>
