<svg width="28" height="27" viewBox="0 0 28 27" fill="none" xmlns="http://www.w3.org/2000/svg">
<path d="M25.5092 0.686523H2.03385C0.909314 0.686523 0 1.52782 0 2.56797V24.9057C0 25.9459 0.909314 26.7923 2.03385 26.7923H25.5092C26.6338 26.7923 27.5484 25.9459 27.5484 24.9108V2.56797C27.5484 1.52782 26.6338 0.686523 25.5092 0.686523ZM8.17306 22.9325H4.08384V10.4711H8.17306V22.9325ZM6.12845 8.77319C4.8156 8.77319 3.75563 7.76873 3.75563 6.52973C3.75563 5.29072 4.8156 4.28626 6.12845 4.28626C7.43593 4.28626 8.4959 5.29072 8.4959 6.52973C8.4959 7.76363 7.43593 8.77319 6.12845 8.77319ZM23.4754 22.9325H19.3915V16.8752C19.3915 15.4322 19.3646 13.5711 17.2662 13.5711C15.1409 13.5711 14.818 15.1467 14.818 16.7732V22.9325H10.7396V10.4711H14.6566V12.1741H14.7104C15.2539 11.1951 16.5883 10.1601 18.5737 10.1601C22.7113 10.1601 23.4754 12.74 23.4754 16.095V22.9325Z" fill="white"/>
</svg>
