<svg width="28" height="27" viewBox="0 0 28 27" fill="none" xmlns="http://www.w3.org/2000/svg">
<path d="M13.7823 2.93205C17.4648 2.93205 17.9008 2.94735 19.3491 3.00855C20.695 3.06465 21.4218 3.27884 21.9063 3.45733C22.547 3.69192 23.01 3.97751 23.4891 4.43139C23.9737 4.89037 24.2698 5.32385 24.5174 5.93072C24.7058 6.3897 24.932 7.08327 24.9912 8.35312C25.0558 9.73005 25.0719 10.1431 25.0719 13.6263C25.0719 17.1145 25.0558 17.5276 24.9912 18.8995C24.932 20.1744 24.7058 20.8629 24.5174 21.3218C24.2698 21.9287 23.9683 22.3673 23.4891 22.8212C23.0046 23.2802 22.547 23.5607 21.9063 23.7952C21.4218 23.9737 20.6896 24.1879 19.3491 24.244C17.8955 24.3052 17.4594 24.3205 13.7823 24.3205C10.0998 24.3205 9.66376 24.3052 8.21554 24.244C6.86961 24.1879 6.14281 23.9737 5.65828 23.7952C5.01762 23.5607 4.55462 23.2751 4.07547 22.8212C3.59093 22.3622 3.29483 21.9287 3.04718 21.3218C2.85875 20.8629 2.63263 20.1693 2.57341 18.8995C2.50881 17.5225 2.49266 17.1094 2.49266 13.6263C2.49266 10.138 2.50881 9.72495 2.57341 8.35312C2.63263 7.07817 2.85875 6.3897 3.04718 5.93072C3.29483 5.32385 3.59632 4.88527 4.07547 4.43139C4.56 3.97241 5.01762 3.69192 5.65828 3.45733C6.14281 3.27884 6.875 3.06465 8.21554 3.00855C9.66376 2.94735 10.0998 2.93205 13.7823 2.93205ZM13.7823 0.581055C10.0406 0.581055 9.57224 0.596354 8.10248 0.657551C6.63811 0.718749 5.63136 0.943139 4.7592 1.26442C3.84935 1.60101 3.07948 2.04469 2.315 2.77396C1.54512 3.49813 1.07674 4.2274 0.721417 5.08416C0.382243 5.91542 0.14536 6.86398 0.0807557 8.25112C0.0161511 9.64846 0 10.0921 0 13.6365C0 17.1808 0.0161511 17.6245 0.0807557 19.0168C0.14536 20.4039 0.382243 21.3575 0.721417 22.1837C1.07674 23.0456 1.54512 23.7748 2.315 24.499C3.07948 25.2232 3.84935 25.672 4.75382 26.0034C5.63136 26.3247 6.63273 26.5491 8.0971 26.6103C9.56685 26.6715 10.0352 26.6868 13.7769 26.6868C17.5186 26.6868 17.987 26.6715 19.4567 26.6103C20.9211 26.5491 21.9279 26.3247 22.8 26.0034C23.7045 25.672 24.4743 25.2232 25.2388 24.499C26.0033 23.7748 26.4771 23.0456 26.827 22.1888C27.1662 21.3575 27.4031 20.409 27.4677 19.0219C27.5323 17.6296 27.5484 17.1859 27.5484 13.6416C27.5484 10.0972 27.5323 9.65356 27.4677 8.26132C27.4031 6.87418 27.1662 5.92052 26.827 5.09436C26.4879 4.2274 26.0195 3.49813 25.2496 2.77396C24.4851 2.04979 23.7152 1.60101 22.8108 1.26952C21.9332 0.948239 20.9319 0.723848 19.4675 0.662651C17.9924 0.596354 17.524 0.581055 13.7823 0.581055Z" fill="white"/>
<path d="M13.7822 6.93066C9.87364 6.93066 6.70264 9.93443 6.70264 13.6369C6.70264 17.3393 9.87364 20.3431 13.7822 20.3431C17.6908 20.3431 20.8618 17.3393 20.8618 13.6369C20.8618 9.93443 17.6908 6.93066 13.7822 6.93066ZM13.7822 17.987C11.2465 17.987 9.18991 16.0389 9.18991 13.6369C9.18991 11.2349 11.2465 9.28676 13.7822 9.28676C16.3179 9.28676 18.3745 11.2349 18.3745 13.6369C18.3745 16.0389 16.3179 17.987 13.7822 17.987Z" fill="white"/>
<path d="M22.7946 6.66524C22.7946 7.53221 22.0517 8.23088 21.1418 8.23088C20.2266 8.23088 19.489 7.52711 19.489 6.66524C19.489 5.79828 20.232 5.09961 21.1418 5.09961C22.0517 5.09961 22.7946 5.80338 22.7946 6.66524Z" fill="white"/>
</svg>
