<svg width="100" height="100" viewBox="0 0 100 100" fill="none" xmlns="http://www.w3.org/2000/svg">
<path d="M85.484 62.7062C88.2444 54.8028 88.2444 46.1971 85.484 38.2937L85.375 38.0031C82.796 30.8201 78.062 24.6086 71.8199 20.2174C65.5777 15.8263 58.1319 13.4697 50.5 13.4697C42.8681 13.4697 35.4223 15.8263 29.1801 20.2174C22.938 24.6086 18.204 30.8201 15.625 38.0031L15.516 38.2937C12.7556 46.1971 12.7556 54.8028 15.516 62.7062L15.625 62.9968C18.2002 70.1812 22.931 76.3951 29.1708 80.7895C35.4107 85.1839 42.8553 87.5443 50.4872 87.5483C58.1192 87.5523 65.5662 85.1996 71.8106 80.8117C78.0551 76.4238 82.7923 70.2148 85.375 63.0331L85.484 62.7062ZM40.2191 64.3046H60.7809C58.7102 70.9527 55.1863 76.9105 50.5 81.4878C45.8137 76.9105 42.2898 70.9527 40.2191 64.3046ZM39.1293 59.9453C37.8211 53.7163 37.8211 47.2836 39.1293 41.0546H61.8707C63.1789 47.2836 63.1789 53.7163 61.8707 59.9453H39.1293ZM17.8047 50.4999C17.7971 47.3007 18.2623 44.1179 19.1852 41.0546H34.6609C33.4982 47.2978 33.4982 53.7021 34.6609 59.9453H19.1852C18.2623 56.882 17.7971 53.6992 17.8047 50.4999ZM60.7809 36.6952H40.2191C42.2898 30.0472 45.8137 24.0894 50.5 19.512C55.1863 24.0894 58.7102 30.0472 60.7809 36.6952ZM66.3754 41.0546H81.8148C83.6565 47.2168 83.6565 53.783 81.8148 59.9453H66.3754C67.4895 53.6977 67.4895 47.3022 66.3754 41.0546ZM80.1438 36.6952H65.3582C63.4955 29.8036 60.0215 23.4533 55.2227 18.1679C60.5858 18.9513 65.6705 21.0543 70.0202 24.2881C74.3699 27.5218 77.8486 31.7851 80.1438 36.6952ZM45.7773 18.1679C40.9785 23.4533 37.5045 29.8036 35.6418 36.6952H20.8563C23.1514 31.7851 26.6301 27.5218 30.9798 24.2881C35.3295 21.0543 40.4142 18.9513 45.7773 18.1679ZM20.8563 64.3046H35.6418C37.5121 71.204 40.9848 77.5644 45.7773 82.8683C40.4148 82.0688 35.3332 79.9556 30.9851 76.7167C26.637 73.4778 23.1574 69.2139 20.8563 64.3046ZM55.2227 82.8683C60.0152 77.5644 63.4879 71.204 65.3582 64.3046H80.1438C77.8426 69.2139 74.363 73.4778 70.0149 76.7167C65.6668 79.9556 60.5852 82.0688 55.2227 82.8683Z" fill="white"/>
<circle cx="50" cy="50" r="49.5" stroke="white"/>
</svg>
